<?xml version='1.0' encoding='UTF-8' standalone='no'?>
<!DOCTYPE svg PUBLIC '-//W3C//DTD SVG 1.1//EN' 'http://www.w3.org/Graphics/SVG/1.1/DTD/svg11.dtd'>
<!-- Animated using aniGen version 0.8.1 Quality of Life - http://anigen.org -->
<svg viewBox="0 0 100 100" version="1.1" xmlns="http://www.w3.org/2000/svg" preserveAspectRatio="xMidYMid" width="100px" height="100px" xmlns:svg="http://www.w3.org/2000/svg" xmlns:xlink="http://www.w3.org/1999/xlink" xmlns:sodipodi="http://sodipodi.sourceforge.net/DTD/sodipodi-0.dtd" xmlns:inkscape="http://www.inkscape.org/namespaces/inkscape" xmlns:anigen="http://www.anigen.org/namespace" anigen:version="0.8.1" style="" id="el_q9TJh6D9M">
  <defs id="defs6170"><clipPath id="clipPath4293">
<rect width="35" height="35" fill="white" id="rect1461"></rect>
</clipPath></defs><sodipodi:namedview id="base" bordercolor="#666666" borderopacity="1" inkscape:cx="0" inkscape:cy="0" inkscape:zoom="1"></sodipodi:namedview><style id="style9576">@-webkit-keyframes el_R9UW4-P7ah_cFTtL09b-_Animation{0%{-webkit-transform: translate(50.609373807907104px,
    50.12313608825207px) rotate(0deg) translate(-50.609373807907104px, -50.12313608825207px);transform:
    translate(50.609373807907104px, 50.12313608825207px) rotate(0deg) translate(-50.609373807907104px,
    -50.12313608825207px);}100%{-webkit-transform: translate(50.609373807907104px, 50.12313608825207px) rotate(360deg)
    translate(-50.609373807907104px, -50.12313608825207px);transform: translate(50.609373807907104px,
    50.12313608825207px) rotate(360deg) translate(-50.609373807907104px, -50.12313608825207px);}}@keyframes
    el_R9UW4-P7ah_cFTtL09b-_Animation{0%{-webkit-transform: translate(50.609373807907104px, 50.12313608825207px)
    rotate(0deg) translate(-50.609373807907104px, -50.12313608825207px);transform: translate(50.609373807907104px,
    50.12313608825207px) rotate(0deg) translate(-50.609373807907104px, -50.12313608825207px);}100%{-webkit-transform:
    translate(50.609373807907104px, 50.12313608825207px) rotate(360deg) translate(-50.609373807907104px,
    -50.12313608825207px);transform: translate(50.609373807907104px, 50.12313608825207px) rotate(360deg)
    translate(-50.609373807907104px, -50.12313608825207px);}}#el_q9TJh6D9M *{-webkit-animation-duration:
    3s;animation-duration: 3s;-webkit-animation-iteration-count: infinite;animation-iteration-count:
    infinite;-webkit-animation-timing-function: cubic-bezier(0, 0, 1, 1);animation-timing-function: cubic-bezier(0, 0,
    1, 1);}#el_S-2d9yQa5L{stroke: none;stroke-width: 1;fill: none;}#el_R9UW4-P7ah{-webkit-transform: translate(12px,
    6px);transform: translate(12px, 6px);fill: #BCBCBC;}#el_xmvLW_YrWI{-webkit-transform: translate(28px,
    39px);transform: translate(28px, 39px);}#el_nq-cSg8kZ_{fill: #7942A8;}#el_8sF3o8gajn{fill:
    #B72779;}#el_VCHGuqeFrW{fill: #EE4037;}#el_kL3ZG-zAr2{fill:
    #F59121;}#el_R9UW4-P7ah_cFTtL09b-{-webkit-animation-name: el_R9UW4-P7ah_cFTtL09b-_Animation;animation-name:
    el_R9UW4-P7ah_cFTtL09b-_Animation;-webkit-transform: translate(50.609373807907104px, 50.12313608825207px)
    rotate(0deg) translate(-50.609373807907104px, -50.12313608825207px);transform: translate(50.609373807907104px,
    50.12313608825207px) rotate(0deg) translate(-50.609373807907104px, -50.12313608825207px);}
  </style>
  <!-- Generator: Sketch 52.5 (67469) - http://www.bohemiancoding.com/sketch -->
  <title id="title9093">both in one</title>
  <desc id="desc734">Created with Sketch.</desc>
  <g id="el_S-2d9yQa5L" fill-rule="evenodd">
    <g id="el_R9UW4-P7ah_cFTtL09b-" data-animator-group="true" data-animator-type="1">
      <g id="el_R9UW4-P7ah" fill-rule="nonzero" transform="matrix(0.05521655082702637 0 0 0.5334198008374216 6.237430572509766 48.67813590782794)">
        <path d="M2.04181362,19.9352748 C3.07651646,18.0314216 14.0719587,0.344900949 38.4633538,0.165552455 C64.0550042,-0.0137960379 75.3539593,20.2525837 75.7333503,21.1217341 C77.4164669,25.0053188 76.699073,29.9925865 73.1327972,31.7722754 C69.0422719,33.814089 64.7655001,32.5862416 62.4822559,29.3579688 C57.7709089,22.7358705 57.2535575,14.3892676 45.1337381,9.44338797 C18.8660819,-1.29682757 0.965722656,21.8598221 2.02111956,19.9283768 L2.04181362,19.9352748 Z M75.1884068,68.3317759 C74.1675,70.2218331 63.1720578,87.9221498 38.7806627,88.0808043 C13.1890123,88.2532547 1.87626116,68.0075691 1.50376814,67.1108266 C-0.206940569,63.247936 0.517351423,58.2675663 4.06983119,56.4878774 C8.16725446,54.4460638 12.4509242,55.6808092 14.7272705,58.902184 C19.4455155,65.5380783 19.9559689,73.8708852 32.0826862,78.8236628 C58.3641385,89.5431843 76.2713958,66.4072287 75.1953048,68.338674 L75.1884068,68.3317759 Z" id="el_j8B3lfKba6"></path>
      </g>
    </g>
    
  </g>
<g clip-path="url(&quot;#clipPath4293&quot;)" id="g9438" transform="matrix(1 0 0 1 31 31)" inkscape:transform-center-x="-31" inkscape:transform-center-y="NaN">
<path fill-rule="evenodd" clip-rule="evenodd" d="M11.3739 22.3413L2.48547 26.4948C4.50923 29.8657 7.63603 32.4988 11.3667 33.8951C11.3985 31.4384 11.4173 27.5141 11.3739 22.3413ZM15.9559 34.9328C16.4647 34.9773 16.9797 35 17.5 35C27.165 35 35 27.165 35 17.5C35 15.4866 34.66 13.5526 34.0343 11.7524L15.9559 20.2002V34.9328Z" fill="#383971" id="path3327"></path>
<path fill-rule="evenodd" clip-rule="evenodd" d="M0 17.5C0 19.0326 0.197008 20.5191 0.56708 21.9357L11.3322 17.1394C11.6631 8.61668 20.1517 3.80207 25.6521 2.01075C23.2176 0.726805 20.4437 0 17.5 0C7.83502 0 0 7.83502 0 17.5ZM29.6313 4.88718C22.4056 6.47531 17.9724 10.6966 16.5013 14.8364L32.1195 7.87773C31.4021 6.79 30.5666 5.78706 29.6313 4.88718Z" fill="#0095E7" id="path7760"></path>
</g></svg>